<?xml version="1.0" encoding="utf-8"?>
<!-- Generator: Adobe Illustrator 23.0.2, SVG Export Plug-In . SVG Version: 6.00 Build 0)  -->
<svg version="1.1" id="Capa_1" xmlns="http://www.w3.org/2000/svg" xmlns:xlink="http://www.w3.org/1999/xlink" x="0px" y="0px"
	 viewBox="0 0 27.4 27.4" style="enable-background:new 0 0 27.4 27.4;" xml:space="preserve">
<style type="text/css">
	.st0{fill:#7BC3D1;}
</style>
<g>
	<g>
		<path class="st0" d="M27.4,15.8c0-2.9-1.5-5.5-3.8-7.1c0.3,1.1,0.5,2.2,0.5,3.4c0,5.3-3.2,9.8-7.8,11.8c0.8,0.3,1.7,0.4,2.6,0.4
			c0.7,0,1.4-0.1,2.1-0.3l4,2.7l-0.3-4.7C26.4,20.4,27.4,18.2,27.4,15.8z"/>
		<path class="st0" d="M22.7,12.1c0-6.3-5.1-11.4-11.4-11.4S0,5.8,0,12.1c0,3.2,1.4,6.2,3.5,8.2l-0.4,6.3l5.4-3.6
			c0.9,0.2,1.8,0.4,2.8,0.4C17.6,23.5,22.7,18.4,22.7,12.1z M4.6,10.4c0-1.1,0.9-2,2-2s2,0.9,2,2c0,1.1-0.9,2-2,2S4.6,11.5,4.6,10.4
			z M11.4,19.8c-3.1,0-5.7-2.5-5.7-3.9c0-1.4,2.5,0.1,5.7,0.1c3.1,0,5.7-1.5,5.7-0.1C17,17.3,14.5,19.8,11.4,19.8z M16,12.4
			c-1.1,0-2-0.9-2-2c0-1.1,0.9-2,2-2s2,0.9,2,2C18.1,11.5,17.2,12.4,16,12.4z"/>
	</g>
</g>
</svg>
