<?xml version="1.0" encoding="utf-8"?>
<!-- Generator: Adobe Illustrator 23.0.2, SVG Export Plug-In . SVG Version: 6.00 Build 0)  -->
<svg version="1.1" id="Capa_1" xmlns="http://www.w3.org/2000/svg" xmlns:xlink="http://www.w3.org/1999/xlink" x="0px" y="0px"
	 viewBox="0 0 24 24" style="enable-background:new 0 0 24 24;" xml:space="preserve">
<style type="text/css">
	.st0{fill:#7BC3D1;}
</style>
<g>
	<g>
		<path class="st0" d="M20,0H4C1.8,0,0,1.8,0,4v16c0,2.2,1.8,4,4,4h16c2.2,0,4-1.8,4-4V4C24,1.8,22.2,0,20,0z M22,20
			c0,1.1-0.9,2-2,2H4c-1.1,0-2-0.9-2-2V4c0-1.1,0.9-2,2-2h16c1.1,0,2,0.9,2,2V20z"/>
		<path class="st0" d="M18.6,7h-8.2c-0.6,0-1,0.4-1,1s0.4,1,1,1h8.2c0.6,0,1-0.4,1-1S19.2,7,18.6,7z"/>
		<path class="st0" d="M8.1,4.8L6.7,6.5C6.5,6.3,6.2,6.2,5.9,6.2c-0.4,0-0.7,0.1-1,0.3L4.7,6.4C4.5,6.3,4.2,6.3,4,6.5
			C3.8,6.7,3.8,7,4,7.2l0.2,0.2C4.2,7.6,4.1,7.8,4.1,8c0,1,0.8,1.8,1.8,1.8S7.6,9,7.6,8c0-0.3-0.1-0.6-0.2-0.8l1.4-1.7
			C9.1,5.3,9,4.9,8.8,4.8C8.6,4.6,8.3,4.6,8.1,4.8z M5.9,6.8c0.2,0,0.4,0,0.5,0.1L5.9,7.5L5.3,6.9C5.5,6.8,5.7,6.8,5.9,6.8z M7.1,8
			c0,0.7-0.6,1.3-1.3,1.3S4.6,8.7,4.6,8c0-0.1,0-0.1,0-0.2l0.9,0.8c0.1,0.1,0.2,0.1,0.3,0.1c0,0,0,0,0,0c0.1,0,0.3-0.1,0.4-0.2
			l0.8-0.9C7.1,7.7,7.1,7.9,7.1,8z"/>
		<path class="st0" d="M5.9,10.3c-1,0-1.8,0.8-1.8,1.8s0.8,1.8,1.8,1.8S7.6,13,7.6,12S6.9,10.3,5.9,10.3z M5.9,13.3
			c-0.7,0-1.3-0.6-1.3-1.3s0.6-1.3,1.3-1.3s1.3,0.6,1.3,1.3S6.6,13.3,5.9,13.3z"/>
		<path class="st0" d="M18.6,11h-8.2c-0.6,0-1,0.4-1,1s0.4,1,1,1h8.2c0.6,0,1-0.4,1-1S19.2,11,18.6,11z"/>
		<path class="st0" d="M5.9,14.3c-1,0-1.8,0.8-1.8,1.8s0.8,1.8,1.8,1.8S7.6,17,7.6,16S6.9,14.3,5.9,14.3z M5.9,17.3
			c-0.7,0-1.3-0.6-1.3-1.3s0.6-1.3,1.3-1.3s1.3,0.6,1.3,1.3C7.1,16.7,6.6,17.3,5.9,17.3z"/>
		<path class="st0" d="M18.6,15h-8.2c-0.6,0-1,0.4-1,1s0.4,1,1,1h8.2c0.6,0,1-0.4,1-1S19.2,15,18.6,15z"/>
	</g>
</g>
</svg>
