<?xml version="1.0" encoding="utf-8"?>
<!-- Generator: Adobe Illustrator 23.0.2, SVG Export Plug-In . SVG Version: 6.00 Build 0)  -->
<svg version="1.1" id="Capa_1" xmlns="http://www.w3.org/2000/svg" xmlns:xlink="http://www.w3.org/1999/xlink" x="0px" y="0px"
	 viewBox="0 0 30 30" style="enable-background:new 0 0 30 30;" xml:space="preserve">
<style type="text/css">
	.st0{fill:#7BC3D1;}
</style>
<g>
	<g>
		<path class="st0" d="M15,0C6.7,0,0,6.7,0,15s6.7,15,15,15s15-6.7,15-15S23.3,0,15,0z M15,27.8C8,27.8,2.2,22,2.2,15S8,2.2,15,2.2
			S27.8,8,27.8,15S22,27.8,15,27.8z"/>
		<path class="st0" d="M12.8,11.4c0,0.7,0.5,1.3,1.4,1.8V9.9C13.3,10.1,12.8,10.6,12.8,11.4z"/>
		<path class="st0" d="M15,3.5C8.7,3.5,3.5,8.7,3.5,15S8.7,26.5,15,26.5S26.5,21.3,26.5,15S21.3,3.5,15,3.5z M18.8,20.9
			c-0.7,0.7-1.8,1.1-3.1,1.3v2.2h-1.5v-2.2c-1.4,0-2.7-0.3-3.9-0.9v-2.8c0.4,0.3,1,0.6,1.8,0.9c0.8,0.3,1.5,0.4,2.1,0.5v-3.7
			c-1.6-0.6-2.7-1.2-3.3-1.9c-0.6-0.7-0.9-1.5-0.9-2.5c0-1.1,0.4-2,1.1-2.7c0.8-0.8,1.8-1.2,3-1.3V5.6h1.5v1.9
			c1.4,0.1,2.5,0.3,3.2,0.7v2.8c-1-0.6-2-0.9-3.2-1.1v3.9c1.5,0.5,2.6,1.2,3.2,1.9c0.6,0.7,1,1.5,1,2.5
			C19.9,19.3,19.6,20.2,18.8,20.9z"/>
		<path class="st0" d="M15.7,16.6v3.1c1-0.1,1.5-0.6,1.5-1.5C17.2,17.6,16.7,17.1,15.7,16.6z"/>
	</g>
</g>
</svg>
