<?xml version="1.0" encoding="utf-8"?>
<!-- Generator: Adobe Illustrator 23.0.2, SVG Export Plug-In . SVG Version: 6.00 Build 0)  -->
<svg version="1.1" id="Capa_1" xmlns="http://www.w3.org/2000/svg" xmlns:xlink="http://www.w3.org/1999/xlink" x="0px" y="0px"
	 viewBox="0 0 33.1 33.1" style="enable-background:new 0 0 33.1 33.1;" xml:space="preserve">
<style type="text/css">
	.st0{fill:#7BC3D1;}
</style>
<g>
	<g>
		<path class="st0" d="M27,18.3c-0.2,0.5-0.5,1-0.8,1.4l3.8,4.8H9.8l0,0l0,0H3.1l4-5c0,0,0-0.1,0-0.1c0-1.5,1.2-2.6,2.6-2.6
			c0.4,0,0.8,0.1,1.1,0.2h2.6c-0.3-0.5-0.6-1-0.8-1.5H8.4L0,26h33.1L27,18.3z"/>
		<path class="st0" d="M20.4,15.5c-0.3,0.5-0.5,1-0.8,1.5h1.6c-0.1-0.4-0.2-0.8-0.2-1.1c0-0.2,0-0.3,0-0.4H20.4z"/>
		<path class="st0" d="M20.8,11.4c0-2.4-1.9-4.3-4.3-4.3s-4.3,1.9-4.3,4.3s4.3,8.5,4.3,8.5S20.8,13.8,20.8,11.4z M14.4,11.4
			c0-1.2,1-2.1,2.1-2.1s2.1,1,2.1,2.1s-1,2.1-2.1,2.1S14.4,12.6,14.4,11.4z"/>
		<path class="st0" d="M26.9,15.9c0-1.4-1.1-2.5-2.5-2.5s-2.5,1.1-2.5,2.5s2.5,5,2.5,5S26.9,17.3,26.9,15.9z M23.1,15.9
			c0-0.7,0.6-1.3,1.3-1.3c0.7,0,1.3,0.6,1.3,1.3c0,0.7-0.6,1.3-1.3,1.3C23.7,17.2,23.1,16.6,23.1,15.9z"/>
		<path class="st0" d="M7.8,19.4c0,1.1,2,3.9,2,3.9s2-2.9,2-3.9s-0.9-2-2-2S7.8,18.3,7.8,19.4z M10.7,19.4c0,0.5-0.4,1-1,1
			s-1-0.4-1-1s0.4-1,1-1S10.7,18.8,10.7,19.4z"/>
	</g>
</g>
</svg>
