<?xml version="1.0" encoding="utf-8"?>
<!-- Generator: Adobe Illustrator 23.0.2, SVG Export Plug-In . SVG Version: 6.00 Build 0)  -->
<svg version="1.1" id="Capa_1" xmlns="http://www.w3.org/2000/svg" xmlns:xlink="http://www.w3.org/1999/xlink" x="0px" y="0px"
	 viewBox="0 0 28.1 28.1" style="enable-background:new 0 0 28.1 28.1;" xml:space="preserve">
<style type="text/css">
	.st0{fill:#7BC3D1;}
</style>
<g>
	<g>
		<path class="st0" d="M3.1,16.1c0.2-0.1,0.4-0.2,0.6-0.3V0.6h2.4v15.2c0.2,0.1,0.4,0.2,0.6,0.3V0H3.1L3.1,16.1L3.1,16.1z"/>
		<path class="st0" d="M12.8,10.3V0.6h2.4v9.7c0.2,0.1,0.4,0.2,0.6,0.3V0h-3.7v10.6C12.4,10.5,12.6,10.4,12.8,10.3z"/>
		<path class="st0" d="M22,4.8V0.6h2.4v4.2C24.6,4.9,24.8,5,25,5.1V0h-3.7v5.1C21.5,5,21.8,4.9,22,4.8z"/>
		<path class="st0" d="M8,19.6c0-1.7-1.4-3.1-3.1-3.1c-1.7,0-3.1,1.4-3.1,3.1c0,1,0.5,1.9,1.2,2.4v6.1h3.7V22
			C7.5,21.5,8,20.6,8,19.6z"/>
		<path class="st0" d="M17.1,14.1c0-1.7-1.4-3.1-3.1-3.1c-1.7,0-3.1,1.4-3.1,3.1c0,1,0.5,1.9,1.2,2.4v11.6h3.7V16.5
			C16.6,15.9,17.1,15.1,17.1,14.1z"/>
		<path class="st0" d="M20.1,8.6c0,1,0.5,1.9,1.2,2.4v17.1H25V11c0.7-0.6,1.2-1.4,1.2-2.4c0-1.7-1.4-3.1-3.1-3.1
			C21.5,5.5,20.1,6.9,20.1,8.6z"/>
	</g>
</g>
</svg>
